<svg width="1440" height="976" viewBox="0 0 1440 976" fill="none" xmlns="http://www.w3.org/2000/svg">
<path fill-rule="evenodd" clip-rule="evenodd" d="M-13 -79.0001H1465V676.823L-13 350.8V-79.0001Z" fill="url(#paint0_linear)"/>
<path d="M733.168 260.2L733.573 261.115L733.576 261.113L733.168 260.2ZM747.784 248.176L746.955 247.618L746.953 247.62L747.784 248.176ZM748.36 211.888L747.541 212.461L747.548 212.471L748.36 211.888ZM735.472 200.656L734.983 201.528L734.989 201.531L735.472 200.656ZM716.752 191.872L717.122 190.943L717.117 190.941L716.752 191.872ZM706.888 187.768L706.465 188.674L706.473 188.678L706.482 188.682L706.888 187.768ZM699.76 182.656L699.002 183.308L699.01 183.317L699.76 182.656ZM701.92 163.144L702.633 163.846L702.638 163.841L701.92 163.144ZM729.64 161.488L729.185 162.378L729.193 162.382L729.64 161.488ZM740.152 168.976L739.427 169.664L740.352 170.639L741.02 169.473L740.152 168.976ZM748.36 154.648L749.228 155.145L749.6 154.496L749.082 153.956L748.36 154.648ZM739.72 148.024L739.208 148.883L739.213 148.886L739.72 148.024ZM728.2 142.984L727.904 143.939L727.907 143.94L728.2 142.984ZM696.16 145.792L695.659 144.927L696.16 145.792ZM683.344 158.248L682.486 157.735L682.483 157.741L683.344 158.248ZM682.552 188.848L681.714 189.393L681.717 189.398L682.552 188.848ZM692.056 198.424L691.497 199.253L691.503 199.257L691.509 199.261L692.056 198.424ZM704.008 204.832L703.618 205.753L703.628 205.757L704.008 204.832ZM719.056 211.528L718.617 212.426L718.625 212.43L719.056 211.528ZM729.136 218.8L728.379 219.453L728.385 219.459L729.136 218.8ZM726.832 242.488L727.423 243.295L727.429 243.29L726.832 242.488ZM697.6 243.712L697.157 244.608L697.165 244.612L697.6 243.712ZM686.656 236.512L685.992 237.259L686.656 236.512ZM679.456 229.744L680.173 229.046L679.3 228.15L678.618 229.198L679.456 229.744ZM669.52 245.008L668.682 244.462L668.271 245.094L668.765 245.663L669.52 245.008ZM674.992 250.408L674.323 251.151L674.332 251.159L674.992 250.408ZM683.848 256.816L683.324 257.667L683.33 257.671L683.337 257.676L683.848 256.816ZM696.088 262.144L695.79 263.098L695.793 263.099L696.088 262.144ZM711.712 265.304C719.936 265.304 727.231 263.917 733.573 261.115L732.764 259.285C726.722 261.955 719.712 263.304 711.712 263.304V265.304ZM733.576 261.113C739.973 258.259 744.998 254.134 748.615 248.732L746.953 247.62C743.563 252.682 738.844 256.573 732.761 259.287L733.576 261.113ZM748.614 248.734C752.295 243.263 754.112 236.7 754.112 229.096H752.112C752.112 236.372 750.378 242.529 746.955 247.618L748.614 248.734ZM754.112 229.096C754.112 221.893 752.495 215.935 749.173 211.305L747.548 212.471C750.562 216.673 752.112 222.187 752.112 229.096H754.112ZM749.18 211.315C745.96 206.709 741.542 202.868 735.956 199.781L734.989 201.531C740.347 204.492 744.52 208.139 747.541 212.461L749.18 211.315ZM735.962 199.784C730.444 196.686 724.163 193.74 717.122 190.943L716.383 192.801C723.358 195.572 729.556 198.482 734.983 201.528L735.962 199.784ZM717.117 190.941C713.577 189.554 710.303 188.191 707.294 186.854L706.482 188.682C709.522 190.033 712.824 191.406 716.388 192.803L717.117 190.941ZM707.312 186.862C704.434 185.516 702.178 183.887 700.511 181.995L699.01 183.317C700.895 185.457 703.391 187.236 706.465 188.674L707.312 186.862ZM700.518 182.004C698.933 180.161 698.096 177.699 698.096 174.52H696.096C696.096 178.061 697.036 181.023 699.002 183.308L700.518 182.004ZM698.096 174.52C698.096 170.48 699.589 166.935 702.633 163.846L701.208 162.442C697.82 165.881 696.096 169.92 696.096 174.52H698.096ZM702.638 163.841C705.617 160.773 709.887 159.176 715.6 159.176V157.176C709.505 157.176 704.656 158.891 701.203 162.447L702.638 163.841ZM715.6 159.176C720.488 159.176 725.012 160.245 729.185 162.378L730.095 160.598C725.629 158.315 720.792 157.176 715.6 157.176V159.176ZM729.193 162.382C733.433 164.502 736.836 166.934 739.427 169.664L740.878 168.288C738.093 165.354 734.488 162.794 730.088 160.594L729.193 162.382ZM741.02 169.473L749.228 155.145L747.493 154.151L739.285 168.479L741.02 169.473ZM749.082 153.956C746.749 151.524 743.792 149.262 740.228 147.162L739.213 148.886C742.657 150.914 745.459 153.068 747.639 155.34L749.082 153.956ZM740.233 147.165C736.702 145.056 732.787 143.345 728.494 142.028L727.907 143.94C732.062 145.215 735.827 146.864 739.208 148.883L740.233 147.165ZM728.497 142.029C724.223 140.703 719.803 140.04 715.24 140.04V142.04C719.606 142.04 723.826 142.673 727.904 143.939L728.497 142.029ZM715.24 140.04C707.843 140.04 701.305 141.658 695.659 144.927L696.661 146.657C701.96 143.59 708.142 142.04 715.24 142.04V140.04ZM695.659 144.927C690.049 148.175 685.65 152.445 682.486 157.735L684.203 158.761C687.182 153.779 691.328 149.745 696.661 146.657L695.659 144.927ZM682.483 157.741C679.368 163.03 677.808 168.749 677.808 174.88H679.808C679.808 169.107 681.272 163.738 684.206 158.755L682.483 157.741ZM677.808 174.88C677.808 180.507 679.093 185.361 681.714 189.393L683.391 188.303C681.019 184.655 679.808 180.197 679.808 174.88H677.808ZM681.717 189.398C684.287 193.302 687.55 196.589 691.497 199.253L692.616 197.595C688.883 195.075 685.81 191.978 683.388 188.298L681.717 189.398ZM691.509 199.261C695.444 201.836 699.481 204 703.618 205.753L704.398 203.911C700.376 202.208 696.444 200.1 692.604 197.587L691.509 199.261ZM703.628 205.757C709.325 208.103 714.321 210.326 718.617 212.426L719.496 210.63C715.152 208.506 710.116 206.265 704.389 203.907L703.628 205.757ZM718.625 212.43C722.857 214.452 726.092 216.8 728.379 219.453L729.894 218.147C727.38 215.232 723.896 212.732 719.487 210.626L718.625 212.43ZM728.385 219.459C730.592 221.976 731.736 225.3 731.736 229.528H733.736C733.736 224.924 732.481 221.096 729.888 218.141L728.385 219.459ZM731.736 229.528C731.736 234.983 729.874 238.979 726.235 241.686L727.429 243.29C731.663 240.141 733.736 235.497 733.736 229.528H731.736ZM726.242 241.681C722.508 244.413 717.854 245.808 712.216 245.808V247.808C718.195 247.808 723.285 246.323 727.423 243.295L726.242 241.681ZM712.216 245.808C706.872 245.808 702.152 244.801 698.035 242.812L697.165 244.612C701.592 246.751 706.617 247.808 712.216 247.808V245.808ZM698.044 242.816C693.838 240.736 690.267 238.384 687.321 235.765L685.992 237.259C689.093 240.016 692.819 242.464 697.157 244.608L698.044 242.816ZM687.321 235.765C684.306 233.084 681.925 230.846 680.173 229.046L678.74 230.442C680.539 232.29 682.959 234.564 685.992 237.259L687.321 235.765ZM678.618 229.198L668.682 244.462L670.358 245.554L680.294 230.29L678.618 229.198ZM668.765 245.663C670.052 247.148 671.911 248.98 674.323 251.151L675.661 249.665C673.274 247.516 671.485 245.748 670.276 244.353L668.765 245.663ZM674.332 251.159C676.784 253.317 679.784 255.486 683.324 257.667L684.373 255.965C680.904 253.826 678.001 251.723 675.653 249.657L674.332 251.159ZM683.337 257.676C686.966 259.833 691.12 261.639 695.79 263.098L696.387 261.19C691.841 259.769 687.834 258.023 684.359 255.956L683.337 257.676ZM695.793 263.099C700.56 264.574 705.87 265.304 711.712 265.304V263.304C706.035 263.304 700.929 262.594 696.384 261.189L695.793 263.099ZM776.673 262H775.673V263H776.673V262ZM795.537 262V263H796.537V262H795.537ZM795.537 143.2H796.537V142.2H795.537V143.2ZM776.673 143.2V142.2H775.673V143.2H776.673ZM776.673 263H795.537V261H776.673V263ZM796.537 262V143.2H794.537V262H796.537ZM795.537 142.2H776.673V144.2H795.537V142.2ZM775.673 143.2V262H777.673V143.2H775.673ZM840.137 262H839.137V263H840.137V262ZM858.929 262V263H859.929V262H858.929ZM858.929 159.976V158.976H857.929V159.976H858.929ZM891.329 159.976V160.976H892.329V159.976H891.329ZM891.329 143.2H892.329V142.2H891.329V143.2ZM807.809 143.2V142.2H806.809V143.2H807.809ZM807.809 159.976H806.809V160.976H807.809V159.976ZM840.137 159.976H841.137V158.976H840.137V159.976ZM840.137 263H858.929V261H840.137V263ZM859.929 262V159.976H857.929V262H859.929ZM858.929 160.976H891.329V158.976H858.929V160.976ZM892.329 159.976V143.2H890.329V159.976H892.329ZM891.329 142.2H807.809V144.2H891.329V142.2ZM806.809 143.2V159.976H808.809V143.2H806.809ZM807.809 160.976H840.137V158.976H807.809V160.976ZM839.137 159.976V262H841.137V159.976H839.137ZM910.413 262H909.413V263H910.413V262ZM974.277 262V263H975.277V262H974.277ZM974.277 245.44H975.277V244.44H974.277V245.44ZM929.277 245.44H928.277V246.44H929.277V245.44ZM929.277 210.736V209.736H928.277V210.736H929.277ZM972.549 210.736V211.736H973.549V210.736H972.549ZM972.549 194.176H973.549V193.176H972.549V194.176ZM929.277 194.176H928.277V195.176H929.277V194.176ZM929.277 159.76V158.76H928.277V159.76H929.277ZM974.277 159.76V160.76H975.277V159.76H974.277ZM974.277 143.2H975.277V142.2H974.277V143.2ZM910.413 143.2V142.2H909.413V143.2H910.413ZM910.413 263H974.277V261H910.413V263ZM975.277 262V245.44H973.277V262H975.277ZM974.277 244.44H929.277V246.44H974.277V244.44ZM930.277 245.44V210.736H928.277V245.44H930.277ZM929.277 211.736H972.549V209.736H929.277V211.736ZM973.549 210.736V194.176H971.549V210.736H973.549ZM972.549 193.176H929.277V195.176H972.549V193.176ZM930.277 194.176V159.76H928.277V194.176H930.277ZM929.277 160.76H974.277V158.76H929.277V160.76ZM975.277 159.76V143.2H973.277V159.76H975.277ZM974.277 142.2H910.413V144.2H974.277V142.2ZM909.413 143.2V262H911.413V143.2H909.413ZM1049.18 262H1048.18V263H1049.18V262ZM1067.98 262V263H1068.98V262H1067.98ZM1067.98 159.976V158.976H1066.98V159.976H1067.98ZM1100.38 159.976V160.976H1101.38V159.976H1100.38ZM1100.38 143.2H1101.38V142.2H1100.38V143.2ZM1016.86 143.2V142.2H1015.86V143.2H1016.86ZM1016.86 159.976H1015.86V160.976H1016.86V159.976ZM1049.18 159.976H1050.18V158.976H1049.18V159.976ZM1049.18 263H1067.98V261H1049.18V263ZM1068.98 262V159.976H1066.98V262H1068.98ZM1067.98 160.976H1100.38V158.976H1067.98V160.976ZM1101.38 159.976V143.2H1099.38V159.976H1101.38ZM1100.38 142.2H1016.86V144.2H1100.38V142.2ZM1015.86 143.2V159.976H1017.86V143.2H1015.86ZM1016.86 160.976H1049.18V158.976H1016.86V160.976ZM1048.18 159.976V262H1050.18V159.976H1048.18ZM1119.46 262H1118.46V263H1119.46V262ZM1183.32 262V263H1184.32V262H1183.32ZM1183.32 245.44H1184.32V244.44H1183.32V245.44ZM1138.32 245.44H1137.32V246.44H1138.32V245.44ZM1138.32 210.736V209.736H1137.32V210.736H1138.32ZM1181.6 210.736V211.736H1182.6V210.736H1181.6ZM1181.6 194.176H1182.6V193.176H1181.6V194.176ZM1138.32 194.176H1137.32V195.176H1138.32V194.176ZM1138.32 159.76V158.76H1137.32V159.76H1138.32ZM1183.32 159.76V160.76H1184.32V159.76H1183.32ZM1183.32 143.2H1184.32V142.2H1183.32V143.2ZM1119.46 143.2V142.2H1118.46V143.2H1119.46ZM1119.46 263H1183.32V261H1119.46V263ZM1184.32 262V245.44H1182.32V262H1184.32ZM1183.32 244.44H1138.32V246.44H1183.32V244.44ZM1139.32 245.44V210.736H1137.32V245.44H1139.32ZM1138.32 211.736H1181.6V209.736H1138.32V211.736ZM1182.6 210.736V194.176H1180.6V210.736H1182.6ZM1181.6 193.176H1138.32V195.176H1181.6V193.176ZM1139.32 194.176V159.76H1137.32V194.176H1139.32ZM1138.32 160.76H1183.32V158.76H1138.32V160.76ZM1184.32 159.76V143.2H1182.32V159.76H1184.32ZM1183.32 142.2H1119.46V144.2H1183.32V142.2ZM1118.46 143.2V262H1120.46V143.2H1118.46ZM1262.15 260.2L1262.55 261.115L1262.56 261.113L1262.15 260.2ZM1276.77 248.176L1275.94 247.618L1275.93 247.62L1276.77 248.176ZM1277.34 211.888L1276.52 212.461L1276.53 212.471L1277.34 211.888ZM1264.45 200.656L1263.96 201.528L1263.97 201.531L1264.45 200.656ZM1245.73 191.872L1246.1 190.943L1246.1 190.941L1245.73 191.872ZM1235.87 187.768L1235.45 188.674L1235.45 188.678L1235.46 188.682L1235.87 187.768ZM1228.74 182.656L1227.98 183.308L1227.99 183.317L1228.74 182.656ZM1230.9 163.144L1231.61 163.846L1231.62 163.841L1230.9 163.144ZM1258.62 161.488L1258.17 162.378L1258.17 162.382L1258.62 161.488ZM1269.13 168.976L1268.41 169.664L1269.33 170.639L1270 169.473L1269.13 168.976ZM1277.34 154.648L1278.21 155.145L1278.58 154.496L1278.06 153.956L1277.34 154.648ZM1268.7 148.024L1268.19 148.883L1268.19 148.886L1268.7 148.024ZM1257.18 142.984L1256.88 143.939L1256.89 143.94L1257.18 142.984ZM1225.14 145.792L1224.64 144.927L1225.14 145.792ZM1212.32 158.248L1211.47 157.735L1211.46 157.741L1212.32 158.248ZM1211.53 188.848L1210.69 189.393L1210.7 189.398L1211.53 188.848ZM1221.04 198.424L1220.48 199.253L1220.48 199.257L1220.49 199.261L1221.04 198.424ZM1232.99 204.832L1232.6 205.753L1232.61 205.757L1232.99 204.832ZM1248.04 211.528L1247.6 212.426L1247.61 212.43L1248.04 211.528ZM1258.12 218.8L1257.36 219.453L1257.37 219.459L1258.12 218.8ZM1255.81 242.488L1256.4 243.295L1256.41 243.29L1255.81 242.488ZM1226.58 243.712L1226.14 244.608L1226.15 244.612L1226.58 243.712ZM1215.64 236.512L1214.97 237.259L1215.64 236.512ZM1208.44 229.744L1209.15 229.046L1208.28 228.15L1207.6 229.198L1208.44 229.744ZM1198.5 245.008L1197.66 244.462L1197.25 245.094L1197.75 245.663L1198.5 245.008ZM1203.97 250.408L1203.3 251.151L1203.31 251.159L1203.97 250.408ZM1212.83 256.816L1212.3 257.667L1212.31 257.671L1212.32 257.676L1212.83 256.816ZM1225.07 262.144L1224.77 263.098L1224.77 263.099L1225.07 262.144ZM1240.69 265.304C1248.92 265.304 1256.21 263.917 1262.55 261.115L1261.74 259.285C1255.7 261.955 1248.69 263.304 1240.69 263.304V265.304ZM1262.56 261.113C1268.95 258.259 1273.98 254.134 1277.6 248.732L1275.93 247.62C1272.54 252.682 1267.82 256.573 1261.74 259.287L1262.56 261.113ZM1277.59 248.734C1281.28 243.263 1283.09 236.7 1283.09 229.096H1281.09C1281.09 236.372 1279.36 242.529 1275.94 247.618L1277.59 248.734ZM1283.09 229.096C1283.09 221.893 1281.48 215.935 1278.15 211.305L1276.53 212.471C1279.54 216.673 1281.09 222.187 1281.09 229.096H1283.09ZM1278.16 211.315C1274.94 206.709 1270.52 202.868 1264.94 199.781L1263.97 201.531C1269.33 204.492 1273.5 208.139 1276.52 212.461L1278.16 211.315ZM1264.94 199.784C1259.42 196.686 1253.14 193.74 1246.1 190.943L1245.36 192.801C1252.34 195.572 1258.54 198.482 1263.96 201.528L1264.94 199.784ZM1246.1 190.941C1242.56 189.554 1239.28 188.191 1236.28 186.854L1235.46 188.682C1238.5 190.033 1241.8 191.406 1245.37 192.803L1246.1 190.941ZM1236.29 186.862C1233.41 185.516 1231.16 183.887 1229.49 181.995L1227.99 183.317C1229.88 185.457 1232.37 187.236 1235.45 188.674L1236.29 186.862ZM1229.5 182.004C1227.91 180.161 1227.08 177.699 1227.08 174.52H1225.08C1225.08 178.061 1226.02 181.023 1227.98 183.308L1229.5 182.004ZM1227.08 174.52C1227.08 170.48 1228.57 166.935 1231.61 163.846L1230.19 162.442C1226.8 165.881 1225.08 169.92 1225.08 174.52H1227.08ZM1231.62 163.841C1234.6 160.773 1238.87 159.176 1244.58 159.176V157.176C1238.49 157.176 1233.64 158.891 1230.18 162.447L1231.62 163.841ZM1244.58 159.176C1249.47 159.176 1253.99 160.245 1258.17 162.378L1259.08 160.598C1254.61 158.315 1249.77 157.176 1244.58 157.176V159.176ZM1258.17 162.382C1262.41 164.502 1265.82 166.934 1268.41 169.664L1269.86 168.288C1267.07 165.354 1263.47 162.794 1259.07 160.594L1258.17 162.382ZM1270 169.473L1278.21 155.145L1276.47 154.151L1268.27 168.479L1270 169.473ZM1278.06 153.956C1275.73 151.524 1272.77 149.262 1269.21 147.162L1268.19 148.886C1271.64 150.914 1274.44 153.068 1276.62 155.34L1278.06 153.956ZM1269.21 147.165C1265.68 145.056 1261.77 143.345 1257.47 142.028L1256.89 143.94C1261.04 145.215 1264.81 146.864 1268.19 148.883L1269.21 147.165ZM1257.48 142.029C1253.2 140.703 1248.78 140.04 1244.22 140.04V142.04C1248.59 142.04 1252.81 142.673 1256.88 143.939L1257.48 142.029ZM1244.22 140.04C1236.82 140.04 1230.29 141.658 1224.64 144.927L1225.64 146.657C1230.94 143.59 1237.12 142.04 1244.22 142.04V140.04ZM1224.64 144.927C1219.03 148.175 1214.63 152.445 1211.47 157.735L1213.18 158.761C1216.16 153.779 1220.31 149.745 1225.64 146.657L1224.64 144.927ZM1211.46 157.741C1208.35 163.03 1206.79 168.749 1206.79 174.88H1208.79C1208.79 169.107 1210.25 163.738 1213.19 158.755L1211.46 157.741ZM1206.79 174.88C1206.79 180.507 1208.07 185.361 1210.69 189.393L1212.37 188.303C1210 184.655 1208.79 180.197 1208.79 174.88H1206.79ZM1210.7 189.398C1213.27 193.302 1216.53 196.589 1220.48 199.253L1221.6 197.595C1217.86 195.075 1214.79 191.978 1212.37 188.298L1210.7 189.398ZM1220.49 199.261C1224.42 201.836 1228.46 204 1232.6 205.753L1233.38 203.911C1229.36 202.208 1225.43 200.1 1221.58 197.587L1220.49 199.261ZM1232.61 205.757C1238.31 208.103 1243.3 210.326 1247.6 212.426L1248.48 210.63C1244.13 208.506 1239.1 206.265 1233.37 203.907L1232.61 205.757ZM1247.61 212.43C1251.84 214.452 1255.07 216.8 1257.36 219.453L1258.87 218.147C1256.36 215.232 1252.88 212.732 1248.47 210.626L1247.61 212.43ZM1257.37 219.459C1259.57 221.976 1260.72 225.3 1260.72 229.528H1262.72C1262.72 224.924 1261.46 221.096 1258.87 218.141L1257.37 219.459ZM1260.72 229.528C1260.72 234.983 1258.85 238.979 1255.22 241.686L1256.41 243.29C1260.64 240.141 1262.72 235.497 1262.72 229.528H1260.72ZM1255.22 241.681C1251.49 244.413 1246.83 245.808 1241.2 245.808V247.808C1247.18 247.808 1252.27 246.323 1256.4 243.295L1255.22 241.681ZM1241.2 245.808C1235.85 245.808 1231.13 244.801 1227.02 242.812L1226.15 244.612C1230.57 246.751 1235.6 247.808 1241.2 247.808V245.808ZM1227.02 242.816C1222.82 240.736 1219.25 238.384 1216.3 235.765L1214.97 237.259C1218.07 240.016 1221.8 242.464 1226.14 244.608L1227.02 242.816ZM1216.3 235.765C1213.29 233.084 1210.91 230.846 1209.15 229.046L1207.72 230.442C1209.52 232.29 1211.94 234.564 1214.97 237.259L1216.3 235.765ZM1207.6 229.198L1197.66 244.462L1199.34 245.554L1209.28 230.29L1207.6 229.198ZM1197.75 245.663C1199.03 247.148 1200.89 248.98 1203.3 251.151L1204.64 249.665C1202.25 247.516 1200.47 245.748 1199.26 244.353L1197.75 245.663ZM1203.31 251.159C1205.76 253.317 1208.77 255.486 1212.3 257.667L1213.35 255.965C1209.88 253.826 1206.98 251.723 1204.63 249.657L1203.31 251.159ZM1212.32 257.676C1215.95 259.833 1220.1 261.639 1224.77 263.098L1225.37 261.19C1220.82 259.769 1216.81 258.023 1213.34 255.956L1212.32 257.676ZM1224.77 263.099C1229.54 264.574 1234.85 265.304 1240.69 265.304V263.304C1235.02 263.304 1229.91 262.594 1225.36 261.189L1224.77 263.099ZM1318.42 262H1317.42V263H1318.42V262ZM1337.21 262V263H1338.21V262H1337.21ZM1337.21 159.976V158.976H1336.21V159.976H1337.21ZM1369.61 159.976V160.976H1370.61V159.976H1369.61ZM1369.61 143.2H1370.61V142.2H1369.61V143.2ZM1286.09 143.2V142.2H1285.09V143.2H1286.09ZM1286.09 159.976H1285.09V160.976H1286.09V159.976ZM1318.42 159.976H1319.42V158.976H1318.42V159.976ZM1318.42 263H1337.21V261H1318.42V263ZM1338.21 262V159.976H1336.21V262H1338.21ZM1337.21 160.976H1369.61V158.976H1337.21V160.976ZM1370.61 159.976V143.2H1368.61V159.976H1370.61ZM1369.61 142.2H1286.09V144.2H1369.61V142.2ZM1285.09 143.2V159.976H1287.09V143.2H1285.09ZM1286.09 160.976H1318.42V158.976H1286.09V160.976ZM1317.42 159.976V262H1319.42V159.976H1317.42ZM1388.7 262H1387.7V263H1388.7V262ZM1452.56 262V263H1453.56V262H1452.56ZM1452.56 245.44H1453.56V244.44H1452.56V245.44ZM1407.56 245.44H1406.56V246.44H1407.56V245.44ZM1407.56 210.736V209.736H1406.56V210.736H1407.56ZM1450.83 210.736V211.736H1451.83V210.736H1450.83ZM1450.83 194.176H1451.83V193.176H1450.83V194.176ZM1407.56 194.176H1406.56V195.176H1407.56V194.176ZM1407.56 159.76V158.76H1406.56V159.76H1407.56ZM1452.56 159.76V160.76H1453.56V159.76H1452.56ZM1452.56 143.2H1453.56V142.2H1452.56V143.2ZM1388.7 143.2V142.2H1387.7V143.2H1388.7ZM1388.7 263H1452.56V261H1388.7V263ZM1453.56 262V245.44H1451.56V262H1453.56ZM1452.56 244.44H1407.56V246.44H1452.56V244.44ZM1408.56 245.44V210.736H1406.56V245.44H1408.56ZM1407.56 211.736H1450.83V209.736H1407.56V211.736ZM1451.83 210.736V194.176H1449.83V210.736H1451.83ZM1450.83 193.176H1407.56V195.176H1450.83V193.176ZM1408.56 194.176V159.76H1406.56V194.176H1408.56ZM1407.56 160.76H1452.56V158.76H1407.56V160.76ZM1453.56 159.76V143.2H1451.56V159.76H1453.56ZM1452.56 142.2H1388.7V144.2H1452.56V142.2ZM1387.7 143.2V262H1389.7V143.2H1387.7Z" fill="#FF7C76"/>
<path d="M-99.8138 98.177L1472.85 446.353" stroke="#FF7C76" stroke-width="0.5"/>
<path d="M-99.8138 -312.823L1472.85 35.3528" stroke="#FF7C76" stroke-width="0.5"/>
<path d="M-95.1146 44.3818L1477.55 392.558" stroke="#FF7C76" stroke-width="0.5"/>
<path d="M-101.032 112.124L1471.72 459.304" stroke="#FF7C76" stroke-width="0.5"/>
<path d="M-101.032 -298.876L1471.72 48.3033" stroke="#FF7C76" stroke-width="0.5"/>
<path d="M-96.3333 58.3286L1476.42 405.508" stroke="#FF7C76" stroke-width="0.5"/>
<path d="M-102.163 125.074L1470.5 473.25" stroke="#FF7C76" stroke-width="0.5"/>
<path d="M-102.163 -285.925L1470.5 62.2506" stroke="#FF7C76" stroke-width="0.5"/>
<path d="M-97.4642 71.2795L1475.2 419.455" stroke="#FF7C76" stroke-width="0.5"/>
<path d="M-97.4642 -339.72L1475.2 8.45569" stroke="#FF7C76" stroke-width="0.5"/>
<path d="M-103.381 139.021L1469.37 486.201" stroke="#FF7C76" stroke-width="0.5"/>
<path d="M-103.381 -271.979L1469.37 75.2008" stroke="#FF7C76" stroke-width="0.5"/>
<path d="M-98.6825 85.2263L1474.07 432.406" stroke="#FF7C76" stroke-width="0.5"/>
<path d="M-98.6825 -325.773L1474.07 21.4062" stroke="#FF7C76" stroke-width="0.5"/>
<path d="M-104.513 151.972L1468.15 500.148" stroke="#FF7C76" stroke-width="0.5"/>
<path d="M-104.513 -259.028L1468.15 89.1481" stroke="#FF7C76" stroke-width="0.5"/>
<path d="M-105.731 165.919L1467.02 513.099" stroke="#FF7C76" stroke-width="0.5"/>
<path d="M-105.731 -245.081L1467.02 102.099" stroke="#FF7C76" stroke-width="0.5"/>
<path d="M-106.863 178.869L1465.8 527.045" stroke="#FF7C76" stroke-width="0.5"/>
<path d="M-106.863 -232.13L1465.8 116.046" stroke="#FF7C76" stroke-width="0.5"/>
<path d="M-108.08 192.816L1464.67 539.996" stroke="#FF7C76" stroke-width="0.5"/>
<path d="M-108.08 -218.184L1464.67 128.996" stroke="#FF7C76" stroke-width="0.5"/>
<path d="M-108.08 -94.5653L1464.67 252.614" stroke="#FF7C76" stroke-width="0.5"/>
<path d="M-109.212 205.767L1463.46 553.943" stroke="#FF7C76" stroke-width="0.5"/>
<path d="M-109.212 -205.233L1463.46 142.943" stroke="#FF7C76" stroke-width="0.5"/>
<path d="M-109.212 -81.6146L1463.46 266.561" stroke="#FF7C76" stroke-width="0.5"/>
<path d="M-110.43 219.714L1462.32 566.894" stroke="#FF7C76" stroke-width="0.5"/>
<path d="M-110.43 -191.286L1462.32 155.894" stroke="#FF7C76" stroke-width="0.5"/>
<path d="M-110.43 -67.6679L1462.32 279.512" stroke="#FF7C76" stroke-width="0.5"/>
<path d="M-111.561 232.665L1461.11 580.841" stroke="#FF7C76" stroke-width="0.5"/>
<path d="M-111.561 -178.335L1461.11 169.841" stroke="#FF7C76" stroke-width="0.5"/>
<path d="M-111.561 -54.7175L1461.11 293.458" stroke="#FF7C76" stroke-width="0.5"/>
<path d="M-112.78 246.612L1459.97 593.792" stroke="#FF7C76" stroke-width="0.5"/>
<path d="M-112.78 -164.388L1459.97 182.792" stroke="#FF7C76" stroke-width="0.5"/>
<path d="M-112.78 -40.7703L1459.97 306.409" stroke="#FF7C76" stroke-width="0.5"/>
<path d="M-113.911 259.563L1458.76 607.739" stroke="#FF7C76" stroke-width="0.5"/>
<path d="M-113.911 -151.437L1458.76 196.739" stroke="#FF7C76" stroke-width="0.5"/>
<path d="M-113.911 -27.8196L1458.76 320.356" stroke="#FF7C76" stroke-width="0.5"/>
<path d="M-115.129 273.51L1457.63 620.689" stroke="#FF7C76" stroke-width="0.5"/>
<path d="M-115.129 -137.49L1457.63 209.689" stroke="#FF7C76" stroke-width="0.5"/>
<path d="M-115.129 -13.8728L1457.63 333.307" stroke="#FF7C76" stroke-width="0.5"/>
<path d="M-116.261 286.46L1456.41 634.636" stroke="#FF7C76" stroke-width="0.5"/>
<path d="M-116.261 -124.54L1456.41 223.635" stroke="#FF7C76" stroke-width="0.5"/>
<path d="M-116.261 -0.922124L1456.41 347.254" stroke="#FF7C76" stroke-width="0.5"/>
<path d="M-117.479 300.407L1455.28 647.587" stroke="#FF7C76" stroke-width="0.5"/>
<path d="M-117.479 -110.593L1455.28 236.587" stroke="#FF7C76" stroke-width="0.5"/>
<path d="M-117.479 13.0247L1455.28 360.204" stroke="#FF7C76" stroke-width="0.5"/>
<path d="M-118.611 313.358L1454.06 661.534" stroke="#FF7C76" stroke-width="0.5"/>
<path d="M-118.611 25.9753L1454.06 374.151" stroke="#FF7C76" stroke-width="0.5"/>
<path d="M-119.828 327.304L1452.93 674.484" stroke="#FF7C76" stroke-opacity="0.2" stroke-width="0.5"/>
<path d="M-116.895 560.18L1455.77 908.356" stroke="#FF7C76" stroke-opacity="0.2" stroke-width="0.5"/>
<path d="M-98.099 345L1474.57 693.176" stroke="#FF7C76" stroke-opacity="0.2" stroke-width="0.5"/>
<path d="M-118.114 574.127L1454.64 921.307" stroke="#FF7C76" stroke-opacity="0.2" stroke-width="0.5"/>
<path d="M-99.3167 358.947L1473.44 706.126" stroke="#FF7C76" stroke-opacity="0.2" stroke-width="0.5"/>
<path d="M-119.244 587.078L1453.42 935.254" stroke="#FF7C76" stroke-opacity="0.2" stroke-width="0.5"/>
<path d="M-100.449 371.897L1472.22 720.073" stroke="#FF7C76" stroke-opacity="0.2" stroke-width="0.5"/>
<path d="M-120.463 601.025L1452.29 948.204" stroke="#FF7C76" stroke-opacity="0.2" stroke-width="0.5"/>
<path d="M-101.667 385.844L1471.09 733.024" stroke="#FF7C76" stroke-opacity="0.2" stroke-width="0.5"/>
<path d="M-121.594 613.975L1451.07 962.151" stroke="#FF7C76" stroke-opacity="0.2" stroke-width="0.5"/>
<path d="M-102.798 398.795L1469.87 746.971" stroke="#FF7C76" stroke-opacity="0.2" stroke-width="0.5"/>
<path d="M-122.813 627.922L1449.94 975.102" stroke="#FF7C76" stroke-opacity="0.2" stroke-width="0.5"/>
<path d="M-104.016 412.741L1468.74 759.921" stroke="#FF7C76" stroke-opacity="0.2" stroke-width="0.5"/>
<path d="M-105.148 425.692L1467.52 773.868" stroke="#FF7C76" stroke-opacity="0.2" stroke-width="0.5"/>
<path d="M-106.366 439.639L1466.39 786.819" stroke="#FF7C76" stroke-opacity="0.2" stroke-width="0.5"/>
<path d="M-107.496 452.59L1465.17 800.766" stroke="#FF7C76" stroke-opacity="0.2" stroke-width="0.5"/>
<path d="M-108.715 466.537L1464.04 813.716" stroke="#FF7C76" stroke-opacity="0.2" stroke-width="0.5"/>
<path d="M-109.847 479.487L1462.82 827.663" stroke="#FF7C76" stroke-opacity="0.2" stroke-width="0.5"/>
<path d="M-111.065 493.434L1461.69 840.614" stroke="#FF7C76" stroke-opacity="0.2" stroke-width="0.5"/>
<path d="M-112.196 506.385L1460.47 854.561" stroke="#FF7C76" stroke-opacity="0.2" stroke-width="0.5"/>
<path d="M-113.414 520.332L1459.34 867.511" stroke="#FF7C76" stroke-opacity="0.2" stroke-width="0.5"/>
<path d="M-114.546 533.283L1458.12 881.459" stroke="#FF7C76" stroke-opacity="0.2" stroke-width="0.5"/>
<path d="M-115.764 547.23L1456.99 894.409" stroke="#FF7C76" stroke-opacity="0.2" stroke-width="0.5"/>
<defs>
<linearGradient id="paint0_linear" x1="361.721" y1="83.3006" x2="883.188" y2="826.408" gradientUnits="userSpaceOnUse">
<stop stop-color="#F55B54"/>
<stop offset="1" stop-color="#FF7C76"/>
</linearGradient>
</defs>
</svg>
